<!-- by TradingView --><svg width="18" height="18" xmlns="http://www.w3.org/2000/svg"><path fill="url(#paint0_linear)" d="M0 0h18v18H0z"/><path d="M10.263 11.21a3.474 3.474 0 100-6.947 3.474 3.474 0 000 6.947zm0 1.263a4.737 4.737 0 110-9.474 4.737 4.737 0 010 9.474z" fill="#35D07F"/><path d="M7.737 13.737a3.474 3.474 0 100-6.948 3.474 3.474 0 000 6.948zm0 1.263a4.737 4.737 0 110-9.474 4.737 4.737 0 010 9.474z" fill="#FBCC5C"/><path d="M10.419 12.47c.328-.397.563-.863.689-1.363.5-.125.966-.36 1.364-.689a4.715 4.715 0 01-.368 1.685 4.716 4.716 0 01-1.685.368zM6.893 6.893c-.5.125-.966.36-1.364.689.018-.58.143-1.15.368-1.685a4.716 4.716 0 011.685-.368 3.463 3.463 0 00-.689 1.364z" fill="#ECFF8F"/><defs><linearGradient id="paint0_linear" x1="3.349" y1="3.122" x2="21.904" y2="24.434" gradientUnits="userSpaceOnUse"><stop stop-color="#1A1E21"/><stop offset="1" stop-color="#06060A"/></linearGradient></defs></svg>