<!-- by TradingView --><svg width="18" height="18" xmlns="http://www.w3.org/2000/svg"><path d="M0 9a9 9 0 1118 0A9 9 0 010 9z" fill="#4055A6"/><path d="M12.883 5.407c.094.136.103.41-.044.615-.146.204-.543.334-.865.032-.841-.788-2.128-.943-2.727-.943-2.851 0-4.16 2.278-4.13 3.889.03 1.611 1.151 3.889 4.13 3.889.832 0 2.236-.352 2.942-1.07.123-.126.56-.048.716.14.155.187.112.623-.068.772A5.75 5.75 0 019.247 14C6.35 14 4 11.761 4 9s2.35-5 5.247-5c2.409 0 3.575 1.317 3.636 1.407z" fill="#fff"/><circle cx="14" cy="7" r="1" fill="#fff"/><circle cx="14" cy="7" r=".388" fill="#4055A6"/></svg>