<!-- by TradingView --><svg width="18" height="18" xmlns="http://www.w3.org/2000/svg"><path d="M0 9a9 9 0 1118 0A9 9 0 010 9z" fill="url(#paint0_linear)"/><path d="M13.598 7.015l-1.026.353C12.032 6.26 10.677 5 8.979 5 6.422 5 5 7.232 5 9c0 1.325 1.138 4 3.964 4 2.115 0 3.464-1.969 3.608-2.273l1.026.233c-.116.456-1.54 3.04-4.62 3.04C6.23 14 4 11.761 4 9s2.229-5 4.979-5 4.349 2.137 4.62 3.015z" fill="#fff"/><path d="M9.634 8.5H15v1H9.634v-1z" fill="#fff"/><ellipse cx="9.003" cy="9.003" rx="1.001" ry="1" fill="#fff"/><defs><linearGradient id="paint0_linear" x1="3.349" y1="3.122" x2="21.904" y2="24.434" gradientUnits="userSpaceOnUse"><stop stop-color="#1A1E21"/><stop offset="1" stop-color="#06060A"/></linearGradient></defs></svg>