<!-- by TradingView --><svg width="18" height="18" xmlns="http://www.w3.org/2000/svg"><path d="M0 9a9 9 0 1118 0A9 9 0 010 9z" fill="url(#paint0_linear)"/><path d="M4 5v5h2V5H4zM12 8v5h2V8h-2zM9 5V8.32l1.563 1.754V6.429L9 5zM7.51 8.167l-.072 1.634v1.77L9 13V9.762L7.51 8.167z" fill="#fff"/><path d="M9 5h1.993L14 8h-2L9 5zM4 10h2l3 3H6.997L4 10z" fill="#D8D8D8"/><path d="M10.364 6.355v3.392L6 5v5l1.636 1.64V8.317L12 13V8l-1.636-1.645z" fill="#3CC68A"/><defs><linearGradient id="paint0_linear" x1="3.349" y1="3.122" x2="21.904" y2="24.434" gradientUnits="userSpaceOnUse"><stop stop-color="#1A1E21"/><stop offset="1" stop-color="#06060A"/></linearGradient></defs></svg>