<!-- by TradingView --><svg width="18" height="18" xmlns="http://www.w3.org/2000/svg"><path fill="#1A53F0" d="M0 0h18v18H0z"/><path d="M6.8 10.996a1.285 1.285 0 100 2.57 1.285 1.285 0 000-2.57zM4.515 12.28a2.285 2.285 0 114.57 0 2.285 2.285 0 01-4.57 0zM7.521 4.99h1.48v1H7.52v-1z" fill="#fff"/><path d="M6.714 5.773a1.285 1.285 0 100 2.57 1.285 1.285 0 000-2.57zM4.429 7.058a2.285 2.285 0 114.57 0 2.285 2.285 0 01-4.57 0zM11.715 5.773a1.285 1.285 0 100 2.57 1.285 1.285 0 000-2.57zM9.43 7.058a2.285 2.285 0 114.57 0 2.285 2.285 0 01-4.57 0z" fill="#fff"/></svg>