<!-- by TradingView --><svg width="18" height="18" xmlns="http://www.w3.org/2000/svg"><path fill="#F0F3FA" d="M0 0h18v18H0z"/><path d="M11 7.625v2.75L14 9V6.25l-3 1.375z" fill="#9290B0"/><path d="M14 11.75l-3-1.375v2.75l3 1.375v-2.75z" fill="#A2EEE3"/><path d="M9 6.593V3.5L4 6.25l3 1.375 2-1.032z" fill="#46DDC8"/><path d="M9 11.443l-2-1.064-3 1.37 5 2.75v-3.056z" fill="#262261"/><path d="M4 6.25v5.5l3-1.375v-2.75L4 6.25z" fill="#9290B0"/><path d="M11 10.375l-2 1.068V14.5l2-1.37v-2.755z" fill="#46DDC8"/><path d="M14 6.25l-2.502-1.375L9 3.5v3.085l2.024 1.042L14 6.25z" fill="#262261"/></svg>