<!-- by TradingView --><svg width="18" height="18" xmlns="http://www.w3.org/2000/svg"><path d="M0 9a9 9 0 1118 0A9 9 0 010 9z" fill="#1B1230"/><path d="M9.643 8c.329.008.614.678.614 1 0 .322-.285.992-.614 1h-1.63c-1.569-.018-3.01-1.409-3.01-3.192 0-1.499 1.441-2.79 3.01-2.808h4.084c.604 0 .908.504.908 1s-.292 1-.908 1h-3.73C7.694 6 6.955 6.356 7 7c.046.644.48 1 1.367 1h1.276z" fill="#fff"/><path d="M8.357 10c-.33-.008-.615-.678-.615-1 0-.322.286-.992.615-1h1.63C11.555 8.018 13 9.237 13 11.192c0 1.499-1.445 2.79-3.013 2.808H5.905c-.49-.012-.895-.493-.908-1-.012-.507.571-.992.908-1h3.8c.702 0 1.326-.443 1.295-1-.031-.557-.421-1-1.308-1H8.357z" fill="#fff"/><path d="M5.064 12.966l5.618-8.11c.288-.476 1.846-.168 2.303 0l-5.776 8.11c-.242.362-1.625.04-2.145 0z" fill="#DAD9DC" fill-opacity=".45"/></svg>