<!-- by TradingView --><svg width="18" height="18" xmlns="http://www.w3.org/2000/svg"><path d="M0 9a9 9 0 1118 0A9 9 0 010 9z" fill="#14C8FF"/><path d="M13.54 6.74c.317.256.516.786.446 1.176l-.68 3.762c-.071.392-.446.823-.832.959l-3.71 1.302c-.386.136-.96.038-1.276-.219L4.46 11.262c-.316-.257-.516-.785-.444-1.177l.68-3.762c.07-.392.445-.823.832-.959l3.71-1.303c.386-.136.96-.037 1.276.22l3.027 2.458zM10.385 8.5l.15-1H9.237l.2-1h-.574c-.33.506-.72.782-1.283 1l-.22 1h.702s-.262.863-.348 1.209c-.354 1.407 0 1.791.76 1.791h1.31l.144-1h-.878c-.425 0-.402-.172-.32-.585L9.05 8.5h1.335z" fill="#fff"/></svg>