<!-- by TradingView --><svg width="18" height="18" xmlns="http://www.w3.org/2000/svg"><path fill="#002868" d="M0 0h18v18H0z"/><path d="M13.2 14H4.8c-.44 0-.8-.36-.8-.8V4.8c0-.44.36-.8.8-.8h8.4c.44 0 .8.36.8.8v8.4c0 .44-.36.8-.8.8z" fill="#fff"/><path d="M12.89 11H5.11c-.06 0-.11-.06-.11-.132V5.66C5 5.297 5.247 5 5.548 5h6.904c.301 0 .548.297.548.66v5.208c0 .073-.05.132-.11.132z" fill="#002868"/><path d="M9.522 10H8.478c-.067 0-.12-.045-.12-.1V6.243c0-.055.053-.1.12-.1h1.044c.067 0 .12.045.12.1V9.9c0 .055-.053.1-.12.1z" fill="#fff"/><path d="M11.141 7H6.86c-.06 0-.109-.042-.109-.094v-.812c0-.052.049-.094.109-.094h4.282c.06 0 .109.042.109.094v.812c0 .052-.049.094-.109.094z" fill="#fff"/></svg>