<!-- by TradingView --><svg width="18" height="18" xmlns="http://www.w3.org/2000/svg"><path fill="#0E0625" d="M0 0h18v18H0z"/><path d="M10.417 7.54h-2.57l1.284 2.222 1.286-2.222z" fill="#fff"/><path d="M5.477 5H3.29l1.642 3H6.5L5.418 6.224h7.376L11.82 8h1.495l1.579-3h-2.187v.058c0 .258-.209.577-.466.577H5.943c-.258 0-.466-.32-.466-.577V5z" fill="#fff"/><path d="M6.995 9H5.62l3.493 6 3.494-6h-1.35l-2.144 3.697L6.994 9z" fill="#9E41E8"/><path d="M5.392 6.194h7.506L9.13 12.75 5.392 6.194zm.164.135l3.536 6.203V8.266L5.556 6.329zm3.612 1.937v4.267l3.565-6.204-3.565 1.937zm3.516-1.997H5.605L9.13 8.2l3.554-1.93z" fill="#625D77"/><path d="M9.132 8.2l1.208-.654.036.067-1.206.652v1.437h-.076V8.265L7.89 7.606l.037-.066 1.205.66z" fill="#625D77"/></svg>