<!-- by TradingView --><svg width="18" height="18" xmlns="http://www.w3.org/2000/svg"><path fill="url(#paint0_linear)" d="M0 0h18v18H0z"/><path d="M3 9a6 6 0 006 6 6 6 0 006-6 6 6 0 00-6-6 6 6 0 00-6 6zm6.001.5l-.75 2.5H7.126l-.45-1.5H5.111c-.06-.196-.077-.473-.092-.728a9.288 9.288 0 00-.018-.272h1.375l-.15-.5H5.001a24.5 24.5 0 01.067-.615c.017-.142.033-.276.044-.385h.814l-.3-1h1.38l.704 3.219L8.439 7h1.125l.699 3.219L10.997 7h1.379l-.3 1h.814c.059.19.076.477.09.723.007.103.013.198.02.277h-1.224l-.15.5h1.375c-.008.079-.014.17-.02.269-.015.238-.032.513-.09.731h-1.565l-.45 1.5H9.751l-.75-2.5z" fill="#fff"/><defs><linearGradient id="paint0_linear" x1="14.047" y1="1.505" x2="3.354" y2="15.98" gradientUnits="userSpaceOnUse"><stop stop-color="#BB55F5"/><stop offset="1" stop-color="#6549DE"/></linearGradient></defs></svg>